<mxfile host="app.diagrams.net" modified="2024-05-19T02:24:44.452Z" agent="Mozilla/5.0 (Windows NT 10.0; Win64; x64) AppleWebKit/537.36 (KHTML, like Gecko) Chrome/124.0.0.0 Safari/537.36" etag="BHARIqehTg88WCn3QONI" version="24.4.4" type="device">
  <diagram name="Page-1" id="dZFIReEb80aFC5FKnxQZ">
    <mxGraphModel dx="2524" dy="738" grid="1" gridSize="10" guides="1" tooltips="1" connect="1" arrows="1" fold="1" page="1" pageScale="1" pageWidth="850" pageHeight="1100" math="0" shadow="0">
      <root>
        <mxCell id="0" />
        <mxCell id="1" parent="0" />
        <mxCell id="JSnBzF0AAh5YjbVFw8KO-1" value="User" style="swimlane;whiteSpace=wrap;html=1;" vertex="1" parent="1">
          <mxGeometry x="85" y="10" width="200" height="2000" as="geometry" />
        </mxCell>
        <mxCell id="JSnBzF0AAh5YjbVFw8KO-2" value="" style="edgeStyle=orthogonalEdgeStyle;rounded=0;orthogonalLoop=1;jettySize=auto;html=1;" edge="1" parent="JSnBzF0AAh5YjbVFw8KO-1" source="JSnBzF0AAh5YjbVFw8KO-3" target="JSnBzF0AAh5YjbVFw8KO-6">
          <mxGeometry relative="1" as="geometry" />
        </mxCell>
        <mxCell id="JSnBzF0AAh5YjbVFw8KO-3" value="&lt;span data-lucid-content=&quot;{&amp;quot;t&amp;quot;:&amp;quot;User navigates to the sign up page&amp;quot;,&amp;quot;m&amp;quot;:[{&amp;quot;s&amp;quot;:0,&amp;quot;n&amp;quot;:&amp;quot;s&amp;quot;,&amp;quot;v&amp;quot;:22.22222222222222,&amp;quot;e&amp;quot;:34},{&amp;quot;s&amp;quot;:0,&amp;quot;n&amp;quot;:&amp;quot;fsp&amp;quot;,&amp;quot;v&amp;quot;:&amp;quot;ss_presetShapeStyle1_textStyle&amp;quot;,&amp;quot;e&amp;quot;:34},{&amp;quot;s&amp;quot;:0,&amp;quot;n&amp;quot;:&amp;quot;fsp2&amp;quot;,&amp;quot;v&amp;quot;:&amp;quot;ss_presetShapeStyle1_textStyle&amp;quot;,&amp;quot;e&amp;quot;:34}]}&quot; data-lucid-type=&quot;application/vnd.lucid.text&quot;&gt;&lt;span style=&quot;color: rgb(58, 65, 74);&quot;&gt;&lt;font style=&quot;font-size: 12px;&quot;&gt;User navigates to Post Question tab&lt;/font&gt;&lt;/span&gt;&lt;/span&gt;" style="rounded=1;whiteSpace=wrap;html=1;" vertex="1" parent="JSnBzF0AAh5YjbVFw8KO-1">
          <mxGeometry x="40" y="150" width="120" height="60" as="geometry" />
        </mxCell>
        <mxCell id="JSnBzF0AAh5YjbVFw8KO-4" value="" style="edgeStyle=orthogonalEdgeStyle;rounded=0;orthogonalLoop=1;jettySize=auto;html=1;" edge="1" parent="JSnBzF0AAh5YjbVFw8KO-1" source="JSnBzF0AAh5YjbVFw8KO-5" target="JSnBzF0AAh5YjbVFw8KO-3">
          <mxGeometry relative="1" as="geometry" />
        </mxCell>
        <mxCell id="JSnBzF0AAh5YjbVFw8KO-5" value="" style="ellipse;whiteSpace=wrap;html=1;aspect=fixed;fillColor=#000000;" vertex="1" parent="JSnBzF0AAh5YjbVFw8KO-1">
          <mxGeometry x="75" y="50" width="50" height="50" as="geometry" />
        </mxCell>
        <mxCell id="JSnBzF0AAh5YjbVFw8KO-6" value="User presses Create New Question" style="rounded=1;whiteSpace=wrap;html=1;" vertex="1" parent="JSnBzF0AAh5YjbVFw8KO-1">
          <mxGeometry x="40" y="270" width="120" height="60" as="geometry" />
        </mxCell>
        <mxCell id="JSnBzF0AAh5YjbVFw8KO-41" value="" style="edgeStyle=orthogonalEdgeStyle;rounded=0;orthogonalLoop=1;jettySize=auto;html=1;" edge="1" parent="JSnBzF0AAh5YjbVFw8KO-1" source="JSnBzF0AAh5YjbVFw8KO-8" target="JSnBzF0AAh5YjbVFw8KO-39">
          <mxGeometry relative="1" as="geometry" />
        </mxCell>
        <mxCell id="JSnBzF0AAh5YjbVFw8KO-8" value="User writes title" style="rounded=1;whiteSpace=wrap;html=1;" vertex="1" parent="JSnBzF0AAh5YjbVFw8KO-1">
          <mxGeometry x="40" y="370" width="120" height="60" as="geometry" />
        </mxCell>
        <mxCell id="JSnBzF0AAh5YjbVFw8KO-42" value="" style="edgeStyle=orthogonalEdgeStyle;rounded=0;orthogonalLoop=1;jettySize=auto;html=1;" edge="1" parent="JSnBzF0AAh5YjbVFw8KO-1" source="JSnBzF0AAh5YjbVFw8KO-39" target="JSnBzF0AAh5YjbVFw8KO-40">
          <mxGeometry relative="1" as="geometry" />
        </mxCell>
        <mxCell id="JSnBzF0AAh5YjbVFw8KO-39" value="User writes question content" style="rounded=1;whiteSpace=wrap;html=1;" vertex="1" parent="JSnBzF0AAh5YjbVFw8KO-1">
          <mxGeometry x="40" y="460" width="120" height="60" as="geometry" />
        </mxCell>
        <mxCell id="JSnBzF0AAh5YjbVFw8KO-43" value="" style="edgeStyle=orthogonalEdgeStyle;rounded=0;orthogonalLoop=1;jettySize=auto;html=1;" edge="1" parent="JSnBzF0AAh5YjbVFw8KO-1" source="JSnBzF0AAh5YjbVFw8KO-40" target="JSnBzF0AAh5YjbVFw8KO-9">
          <mxGeometry relative="1" as="geometry" />
        </mxCell>
        <mxCell id="JSnBzF0AAh5YjbVFw8KO-40" value="User adds tags" style="rounded=1;whiteSpace=wrap;html=1;" vertex="1" parent="JSnBzF0AAh5YjbVFw8KO-1">
          <mxGeometry x="40" y="550" width="120" height="60" as="geometry" />
        </mxCell>
        <mxCell id="JSnBzF0AAh5YjbVFw8KO-9" value="User presses the Post Question button" style="rounded=1;whiteSpace=wrap;html=1;" vertex="1" parent="JSnBzF0AAh5YjbVFw8KO-1">
          <mxGeometry x="40" y="650" width="120" height="60" as="geometry" />
        </mxCell>
        <mxCell id="JSnBzF0AAh5YjbVFw8KO-61" style="edgeStyle=orthogonalEdgeStyle;rounded=0;orthogonalLoop=1;jettySize=auto;html=1;exitX=0.5;exitY=0;exitDx=0;exitDy=0;entryX=0.5;entryY=1;entryDx=0;entryDy=0;" edge="1" parent="JSnBzF0AAh5YjbVFw8KO-1" source="JSnBzF0AAh5YjbVFw8KO-59" target="JSnBzF0AAh5YjbVFw8KO-9">
          <mxGeometry relative="1" as="geometry" />
        </mxCell>
        <mxCell id="JSnBzF0AAh5YjbVFw8KO-59" value="User fixes post error&amp;nbsp;" style="rounded=1;whiteSpace=wrap;html=1;" vertex="1" parent="JSnBzF0AAh5YjbVFw8KO-1">
          <mxGeometry x="40" y="860" width="120" height="60" as="geometry" />
        </mxCell>
        <mxCell id="JSnBzF0AAh5YjbVFw8KO-10" value="Program" style="swimlane;whiteSpace=wrap;html=1;" vertex="1" parent="1">
          <mxGeometry x="285" y="10" width="805" height="2000" as="geometry" />
        </mxCell>
        <mxCell id="JSnBzF0AAh5YjbVFw8KO-11" value="" style="edgeStyle=orthogonalEdgeStyle;rounded=0;orthogonalLoop=1;jettySize=auto;html=1;" edge="1" parent="JSnBzF0AAh5YjbVFw8KO-10" source="JSnBzF0AAh5YjbVFw8KO-12" target="JSnBzF0AAh5YjbVFw8KO-13">
          <mxGeometry relative="1" as="geometry" />
        </mxCell>
        <mxCell id="JSnBzF0AAh5YjbVFw8KO-12" value="Generate question form" style="rounded=1;whiteSpace=wrap;html=1;" vertex="1" parent="JSnBzF0AAh5YjbVFw8KO-10">
          <mxGeometry x="180" y="270" width="120" height="60" as="geometry" />
        </mxCell>
        <mxCell id="JSnBzF0AAh5YjbVFw8KO-13" value="Display question form" style="rounded=1;whiteSpace=wrap;html=1;" vertex="1" parent="JSnBzF0AAh5YjbVFw8KO-10">
          <mxGeometry x="180" y="370" width="120" height="60" as="geometry" />
        </mxCell>
        <mxCell id="JSnBzF0AAh5YjbVFw8KO-44" value="" style="edgeStyle=orthogonalEdgeStyle;rounded=0;orthogonalLoop=1;jettySize=auto;html=1;" edge="1" parent="JSnBzF0AAh5YjbVFw8KO-10">
          <mxGeometry relative="1" as="geometry">
            <mxPoint x="-855" y="850" as="sourcePoint" />
            <mxPoint x="-855" y="890" as="targetPoint" />
          </mxGeometry>
        </mxCell>
        <mxCell id="JSnBzF0AAh5YjbVFw8KO-14" style="edgeStyle=orthogonalEdgeStyle;rounded=0;orthogonalLoop=1;jettySize=auto;html=1;exitX=0.5;exitY=1;exitDx=0;exitDy=0;entryX=0.5;entryY=0;entryDx=0;entryDy=0;" edge="1" parent="JSnBzF0AAh5YjbVFw8KO-10" source="JSnBzF0AAh5YjbVFw8KO-15" target="JSnBzF0AAh5YjbVFw8KO-19">
          <mxGeometry relative="1" as="geometry" />
        </mxCell>
        <mxCell id="JSnBzF0AAh5YjbVFw8KO-15" value="Validate user content" style="rounded=1;whiteSpace=wrap;html=1;" vertex="1" parent="JSnBzF0AAh5YjbVFw8KO-10">
          <mxGeometry x="355" y="650" width="120" height="60" as="geometry" />
        </mxCell>
        <mxCell id="JSnBzF0AAh5YjbVFw8KO-18" value="" style="edgeStyle=orthogonalEdgeStyle;rounded=0;orthogonalLoop=1;jettySize=auto;html=1;" edge="1" parent="JSnBzF0AAh5YjbVFw8KO-10" source="JSnBzF0AAh5YjbVFw8KO-34" target="JSnBzF0AAh5YjbVFw8KO-33">
          <mxGeometry relative="1" as="geometry" />
        </mxCell>
        <mxCell id="JSnBzF0AAh5YjbVFw8KO-51" style="edgeStyle=orthogonalEdgeStyle;rounded=0;orthogonalLoop=1;jettySize=auto;html=1;exitX=1;exitY=0.5;exitDx=0;exitDy=0;" edge="1" parent="JSnBzF0AAh5YjbVFw8KO-10" source="JSnBzF0AAh5YjbVFw8KO-19" target="JSnBzF0AAh5YjbVFw8KO-21">
          <mxGeometry relative="1" as="geometry" />
        </mxCell>
        <mxCell id="JSnBzF0AAh5YjbVFw8KO-52" style="edgeStyle=orthogonalEdgeStyle;rounded=0;orthogonalLoop=1;jettySize=auto;html=1;exitX=0;exitY=0.5;exitDx=0;exitDy=0;" edge="1" parent="JSnBzF0AAh5YjbVFw8KO-10" source="JSnBzF0AAh5YjbVFw8KO-19" target="JSnBzF0AAh5YjbVFw8KO-47">
          <mxGeometry relative="1" as="geometry" />
        </mxCell>
        <mxCell id="JSnBzF0AAh5YjbVFw8KO-53" style="edgeStyle=orthogonalEdgeStyle;rounded=0;orthogonalLoop=1;jettySize=auto;html=1;exitX=0;exitY=0.5;exitDx=0;exitDy=0;entryX=0.5;entryY=0;entryDx=0;entryDy=0;" edge="1" parent="JSnBzF0AAh5YjbVFw8KO-10" source="JSnBzF0AAh5YjbVFw8KO-19" target="JSnBzF0AAh5YjbVFw8KO-23">
          <mxGeometry relative="1" as="geometry" />
        </mxCell>
        <mxCell id="JSnBzF0AAh5YjbVFw8KO-19" value="" style="rhombus;whiteSpace=wrap;html=1;" vertex="1" parent="JSnBzF0AAh5YjbVFw8KO-10">
          <mxGeometry x="395" y="780" width="40" height="40" as="geometry" />
        </mxCell>
        <mxCell id="JSnBzF0AAh5YjbVFw8KO-20" value="" style="edgeStyle=orthogonalEdgeStyle;rounded=0;orthogonalLoop=1;jettySize=auto;html=1;" edge="1" parent="JSnBzF0AAh5YjbVFw8KO-10" source="JSnBzF0AAh5YjbVFw8KO-21" target="JSnBzF0AAh5YjbVFw8KO-25">
          <mxGeometry relative="1" as="geometry" />
        </mxCell>
        <mxCell id="JSnBzF0AAh5YjbVFw8KO-21" value="Write post to database" style="rounded=1;whiteSpace=wrap;html=1;" vertex="1" parent="JSnBzF0AAh5YjbVFw8KO-10">
          <mxGeometry x="505" y="880" width="120" height="60" as="geometry" />
        </mxCell>
        <mxCell id="JSnBzF0AAh5YjbVFw8KO-23" value="Do not post and send user a validation error message" style="rounded=1;whiteSpace=wrap;html=1;" vertex="1" parent="JSnBzF0AAh5YjbVFw8KO-10">
          <mxGeometry x="25" y="990" width="120" height="60" as="geometry" />
        </mxCell>
        <mxCell id="JSnBzF0AAh5YjbVFw8KO-49" style="edgeStyle=orthogonalEdgeStyle;rounded=0;orthogonalLoop=1;jettySize=auto;html=1;exitX=0.5;exitY=1;exitDx=0;exitDy=0;" edge="1" parent="JSnBzF0AAh5YjbVFw8KO-10" source="JSnBzF0AAh5YjbVFw8KO-25" target="JSnBzF0AAh5YjbVFw8KO-31">
          <mxGeometry relative="1" as="geometry" />
        </mxCell>
        <mxCell id="JSnBzF0AAh5YjbVFw8KO-25" value="Set post to visible on the CodeQA site" style="rounded=1;whiteSpace=wrap;html=1;" vertex="1" parent="JSnBzF0AAh5YjbVFw8KO-10">
          <mxGeometry x="505" y="980" width="120" height="60" as="geometry" />
        </mxCell>
        <mxCell id="JSnBzF0AAh5YjbVFw8KO-27" value="" style="rhombus;whiteSpace=wrap;html=1;" vertex="1" parent="JSnBzF0AAh5YjbVFw8KO-10">
          <mxGeometry x="395" y="1180" width="40" height="40" as="geometry" />
        </mxCell>
        <mxCell id="JSnBzF0AAh5YjbVFw8KO-28" value="" style="ellipse;whiteSpace=wrap;html=1;aspect=fixed;fillColor=#000000;" vertex="1" parent="JSnBzF0AAh5YjbVFw8KO-10">
          <mxGeometry x="390" y="1550" width="50" height="50" as="geometry" />
        </mxCell>
        <mxCell id="JSnBzF0AAh5YjbVFw8KO-29" value="[Has validation error]" style="text;html=1;align=center;verticalAlign=middle;resizable=0;points=[];autosize=1;strokeColor=none;fillColor=none;" vertex="1" parent="JSnBzF0AAh5YjbVFw8KO-10">
          <mxGeometry x="265" y="765" width="130" height="30" as="geometry" />
        </mxCell>
        <mxCell id="JSnBzF0AAh5YjbVFw8KO-30" value="[Is valid]" style="text;html=1;align=center;verticalAlign=middle;resizable=0;points=[];autosize=1;strokeColor=none;fillColor=none;" vertex="1" parent="JSnBzF0AAh5YjbVFw8KO-10">
          <mxGeometry x="465" y="765" width="70" height="30" as="geometry" />
        </mxCell>
        <mxCell id="JSnBzF0AAh5YjbVFw8KO-32" style="edgeStyle=orthogonalEdgeStyle;rounded=0;orthogonalLoop=1;jettySize=auto;html=1;exitX=0.5;exitY=1;exitDx=0;exitDy=0;entryX=0.5;entryY=0;entryDx=0;entryDy=0;" edge="1" parent="JSnBzF0AAh5YjbVFw8KO-10" source="JSnBzF0AAh5YjbVFw8KO-33" target="JSnBzF0AAh5YjbVFw8KO-27">
          <mxGeometry relative="1" as="geometry" />
        </mxCell>
        <mxCell id="JSnBzF0AAh5YjbVFw8KO-33" value="Send user a notification to resubmit their question later" style="rounded=1;whiteSpace=wrap;html=1;" vertex="1" parent="JSnBzF0AAh5YjbVFw8KO-10">
          <mxGeometry x="355" y="990" width="120" height="60" as="geometry" />
        </mxCell>
        <mxCell id="JSnBzF0AAh5YjbVFw8KO-34" value="[System is down]" style="text;html=1;align=center;verticalAlign=middle;resizable=0;points=[];autosize=1;strokeColor=none;fillColor=none;" vertex="1" parent="JSnBzF0AAh5YjbVFw8KO-10">
          <mxGeometry x="360" y="880" width="110" height="30" as="geometry" />
        </mxCell>
        <mxCell id="JSnBzF0AAh5YjbVFw8KO-35" style="rounded=0;orthogonalLoop=1;jettySize=auto;html=1;exitX=0.5;exitY=1;exitDx=0;exitDy=0;entryX=0.508;entryY=-0.181;entryDx=0;entryDy=0;entryPerimeter=0;startArrow=none;startFill=0;endArrow=none;endFill=0;" edge="1" parent="JSnBzF0AAh5YjbVFw8KO-10" source="JSnBzF0AAh5YjbVFw8KO-19" target="JSnBzF0AAh5YjbVFw8KO-34">
          <mxGeometry relative="1" as="geometry" />
        </mxCell>
        <mxCell id="JSnBzF0AAh5YjbVFw8KO-47" value="Do not post and send user a validation error message" style="rounded=1;whiteSpace=wrap;html=1;" vertex="1" parent="JSnBzF0AAh5YjbVFw8KO-10">
          <mxGeometry x="195" y="990" width="120" height="60" as="geometry" />
        </mxCell>
        <mxCell id="JSnBzF0AAh5YjbVFw8KO-50" style="edgeStyle=orthogonalEdgeStyle;rounded=0;orthogonalLoop=1;jettySize=auto;html=1;exitX=0.5;exitY=1;exitDx=0;exitDy=0;entryX=1;entryY=0.5;entryDx=0;entryDy=0;" edge="1" parent="JSnBzF0AAh5YjbVFw8KO-10" source="JSnBzF0AAh5YjbVFw8KO-31" target="JSnBzF0AAh5YjbVFw8KO-27">
          <mxGeometry relative="1" as="geometry" />
        </mxCell>
        <mxCell id="JSnBzF0AAh5YjbVFw8KO-31" value="Notify user their post was successful" style="rounded=1;whiteSpace=wrap;html=1;" vertex="1" parent="JSnBzF0AAh5YjbVFw8KO-10">
          <mxGeometry x="505" y="1080" width="120" height="60" as="geometry" />
        </mxCell>
        <mxCell id="JSnBzF0AAh5YjbVFw8KO-54" value="[Has system error]" style="text;html=1;align=center;verticalAlign=middle;resizable=0;points=[];autosize=1;strokeColor=none;fillColor=none;" vertex="1" parent="JSnBzF0AAh5YjbVFw8KO-10">
          <mxGeometry x="100" y="765" width="120" height="30" as="geometry" />
        </mxCell>
        <mxCell id="JSnBzF0AAh5YjbVFw8KO-62" value="" style="ellipse;whiteSpace=wrap;html=1;aspect=fixed;fillColor=#000000;" vertex="1" parent="JSnBzF0AAh5YjbVFw8KO-10">
          <mxGeometry x="240" y="1950" width="50" height="50" as="geometry" />
        </mxCell>
        <mxCell id="JSnBzF0AAh5YjbVFw8KO-63" value="Write post to database" style="rounded=1;whiteSpace=wrap;html=1;" vertex="1" parent="JSnBzF0AAh5YjbVFw8KO-10">
          <mxGeometry x="355" y="1280" width="120" height="60" as="geometry" />
        </mxCell>
        <mxCell id="JSnBzF0AAh5YjbVFw8KO-65" value="Set post to visible on the CodeQA site" style="rounded=1;whiteSpace=wrap;html=1;" vertex="1" parent="JSnBzF0AAh5YjbVFw8KO-10">
          <mxGeometry x="355" y="1380" width="120" height="60" as="geometry" />
        </mxCell>
        <mxCell id="JSnBzF0AAh5YjbVFw8KO-67" value="Notify user their post was successful" style="rounded=1;whiteSpace=wrap;html=1;" vertex="1" parent="JSnBzF0AAh5YjbVFw8KO-10">
          <mxGeometry x="575" y="1400" width="120" height="60" as="geometry" />
        </mxCell>
        <mxCell id="JSnBzF0AAh5YjbVFw8KO-36" style="edgeStyle=orthogonalEdgeStyle;rounded=0;orthogonalLoop=1;jettySize=auto;html=1;exitX=1;exitY=0.5;exitDx=0;exitDy=0;" edge="1" parent="1" source="JSnBzF0AAh5YjbVFw8KO-6" target="JSnBzF0AAh5YjbVFw8KO-12">
          <mxGeometry relative="1" as="geometry" />
        </mxCell>
        <mxCell id="JSnBzF0AAh5YjbVFw8KO-37" style="edgeStyle=orthogonalEdgeStyle;rounded=0;orthogonalLoop=1;jettySize=auto;html=1;exitX=0;exitY=0.5;exitDx=0;exitDy=0;entryX=1;entryY=0.5;entryDx=0;entryDy=0;" edge="1" parent="1" source="JSnBzF0AAh5YjbVFw8KO-13" target="JSnBzF0AAh5YjbVFw8KO-8">
          <mxGeometry relative="1" as="geometry" />
        </mxCell>
        <mxCell id="JSnBzF0AAh5YjbVFw8KO-46" style="edgeStyle=orthogonalEdgeStyle;rounded=0;orthogonalLoop=1;jettySize=auto;html=1;exitX=1;exitY=0.5;exitDx=0;exitDy=0;entryX=0;entryY=0.5;entryDx=0;entryDy=0;" edge="1" parent="1" source="JSnBzF0AAh5YjbVFw8KO-9" target="JSnBzF0AAh5YjbVFw8KO-15">
          <mxGeometry relative="1" as="geometry">
            <mxPoint x="465" y="690" as="targetPoint" />
          </mxGeometry>
        </mxCell>
        <mxCell id="JSnBzF0AAh5YjbVFw8KO-56" style="edgeStyle=orthogonalEdgeStyle;rounded=0;orthogonalLoop=1;jettySize=auto;html=1;exitX=0.5;exitY=1;exitDx=0;exitDy=0;" edge="1" parent="1" source="JSnBzF0AAh5YjbVFw8KO-23" target="JSnBzF0AAh5YjbVFw8KO-59">
          <mxGeometry relative="1" as="geometry">
            <mxPoint x="190" y="1090" as="targetPoint" />
          </mxGeometry>
        </mxCell>
        <mxCell id="JSnBzF0AAh5YjbVFw8KO-60" style="edgeStyle=orthogonalEdgeStyle;rounded=0;orthogonalLoop=1;jettySize=auto;html=1;exitX=0.5;exitY=1;exitDx=0;exitDy=0;entryX=0.5;entryY=1;entryDx=0;entryDy=0;" edge="1" parent="1" source="JSnBzF0AAh5YjbVFw8KO-47" target="JSnBzF0AAh5YjbVFw8KO-59">
          <mxGeometry relative="1" as="geometry" />
        </mxCell>
      </root>
    </mxGraphModel>
  </diagram>
</mxfile>
